<?xml version="1.0" standalone="no"?>
<!DOCTYPE svg PUBLIC "-//W3C//DTD SVG 20010904//EN"
 "http://www.w3.org/TR/2001/REC-SVG-20010904/DTD/svg10.dtd">
<svg version="1.0" xmlns="http://www.w3.org/2000/svg"
 width="980.000000pt" height="954.000000pt" viewBox="0 0 980.000000 954.000000"
 preserveAspectRatio="xMidYMid meet">

<g transform="translate(0.000000,954.000000) scale(0.100000,-0.100000)"
fill="#000000" stroke="none">
<path d="M8897 9515 c-32 -8 -92 -31 -133 -52 -67 -32 -106 -65 -328 -277
-138 -133 -916 -904 -1728 -1714 l-1476 -1474 -74 56 c-130 97 -247 133 -402
123 -104 -6 -158 -28 -379 -155 -373 -215 -650 -333 -1023 -436 -405 -112
-759 -160 -1189 -160 -564 -1 -1003 71 -1645 269 -260 80 -353 97 -404 72 -19
-9 -42 -27 -51 -40 -23 -36 -42 -145 -54 -315 -65 -914 186 -1879 720 -2768
717 -1195 1922 -2193 3039 -2518 373 -108 765 -143 1015 -91 118 24 160 46
184 93 67 131 249 633 898 2472 661 1874 629 1774 620 1930 -8 153 -51 248
-172 379 l-58 62 1484 1487 c1758 1761 1928 1938 2004 2089 55 108 69 313 30
458 -64 240 -264 446 -486 500 -93 23 -319 29 -392 10z m326 -358 c70 -32 155
-114 193 -188 25 -47 29 -65 28 -139 0 -63 -6 -100 -23 -145 -21 -58 -71 -109
-1594 -1628 -865 -862 -1632 -1625 -1705 -1694 l-133 -127 -255 255 -254 254
1192 1193 c1275 1276 2043 2033 2182 2151 50 43 104 79 128 87 65 21 172 13
241 -19z m-4345 -3346 c50 -25 576 -536 949 -921 264 -272 302 -315 313 -356
13 -45 12 -50 -43 -212 -47 -141 -216 -618 -298 -839 -13 -35 -26 -63 -30 -63
-5 0 -61 48 -126 107 -139 126 -1670 1655 -1761 1759 l-62 71 158 68 c192 83
357 165 522 258 274 156 304 166 378 128z m-4362 -486 c745 -228 1512 -303
2233 -219 162 18 323 46 519 89 l157 34 1107 -1107 1106 -1107 -224 -635
c-481 -1360 -705 -1975 -728 -1999 -14 -13 -40 -15 -159 -14 -215 4 -366 21
-517 60 -74 19 -136 36 -139 38 -2 3 23 40 56 82 302 390 681 1160 660 1341
-10 86 -76 142 -169 142 -111 0 -135 -28 -218 -255 -93 -253 -291 -631 -471
-898 -74 -111 -206 -277 -219 -277 -52 0 -594 296 -750 409 -19 14 -37 27 -39
28 -3 2 99 108 225 236 287 289 473 511 595 707 62 101 92 176 84 209 -10 40
-51 88 -101 117 -38 22 -54 26 -100 22 -69 -6 -89 -25 -196 -182 -159 -234
-399 -512 -608 -704 -69 -63 -144 -124 -168 -135 l-43 -21 -43 23 c-24 12
-102 75 -172 139 -142 128 -514 492 -514 501 0 3 58 33 128 66 381 179 674
361 734 454 67 107 10 242 -110 258 -52 7 -115 -22 -321 -146 -163 -99 -522
-281 -607 -308 -28 -9 -59 -13 -68 -10 -63 24 -536 739 -536 811 0 23 58 34
255 45 366 22 770 102 876 174 45 30 59 60 59 130 0 65 -17 112 -50 142 -37
33 -166 26 -405 -23 -110 -23 -247 -46 -305 -51 -155 -15 -612 -33 -620 -24
-12 13 -89 218 -141 373 -60 182 -99 325 -99 369 0 31 2 33 28 28 157 -34 279
-42 647 -42 379 0 511 7 730 42 182 28 258 61 291 126 21 39 21 115 1 154 -18
35 -76 88 -106 98 -11 3 -74 -3 -138 -14 -178 -31 -311 -41 -618 -48 -408 -8
-774 15 -877 58 -34 14 -45 44 -58 154 -21 181 -25 605 -6 605 1 0 70 -20 152
-45z"/>
</g>
</svg>
